<svg viewBox="0 0 200 161" fill="none" xmlns="http://www.w3.org/2000/svg"><path fill-rule="evenodd" clip-rule="evenodd" d="M156.915 109.713C161.516 106.358 164.404 101.184 164.879 95.5634L192.973 75.4585C196.853 72.7097 199.16 68.2495 199.16 63.4939V37.8771C199.16 29.7795 191.373 23.215 183.276 23.215H162.893C161.524 20.5732 159.512 18.2656 156.986 16.5329L137.872 3.42645C134.617 1.19452 130.763 0 126.816 0H71.3178C67.2495 0 63.2826 1.26921 59.9698 3.63076L41.9004 16.5119C39.4338 18.2703 37.4796 20.5828 36.1586 23.215H15.8839C7.78627 23.215 0 29.7795 0 37.8771V63.4939C0 68.2495 2.30646 72.7097 6.18714 75.4585L34.281 95.5636C34.7561 101.184 37.6437 106.358 42.245 109.713L94.1636 147.56H45.208C43.1836 147.56 41.5425 149.201 41.5425 151.225V157.335C41.5425 159.359 43.1836 161 45.208 161H153.952C155.976 161 157.617 159.359 157.617 157.335V151.225C157.617 149.201 155.976 147.56 153.952 147.56H104.996L156.915 109.713ZM34.2115 36.6553V79.4706L14.4714 65.488C13.8247 65.0299 13.4402 64.2865 13.4402 63.4939V39.0989C13.4402 37.7493 14.5343 36.6553 15.8839 36.6553H34.2115ZM184.688 65.488L164.948 79.4704V36.6553H183.276C184.625 36.6553 185.719 37.7493 185.719 39.0989V63.4939C185.719 64.2865 185.335 65.0299 184.688 65.488Z" fill="#E5E5E5"/></svg>