<svg xmlns="http://www.w3.org/2000/svg" width="93" height="106" viewBox="0 0 93 106"><g fill="none" fill-rule="evenodd" transform="translate(.132 .164)"><path fill="#FFC800" d="M85.498 78.98a6.568 6.568 0 0 1 6.044 6.547v13.73a6.567 6.567 0 0 1-6.567 6.568H7.857a6.567 6.567 0 0 1-6.568-6.567V85.527a6.567 6.567 0 0 1 6.283-6.562L11.29 30.41H6.567A6.567 6.567 0 0 1 0 23.842V6.567A6.567 6.567 0 0 1 6.567 0H19.22a6.567 6.567 0 0 1 6.568 6.567v4.38h7.736v-4.38A6.567 6.567 0 0 1 40.09 0h12.652a6.567 6.567 0 0 1 6.567 6.567v4.38h7.736v-4.38A6.567 6.567 0 0 1 73.612 0h12.653a6.567 6.567 0 0 1 6.567 6.567v17.275a6.567 6.567 0 0 1-6.567 6.567H82.56l2.937 48.57z"/><path fill="#FFDE00" d="M14.755 4.872h4.647a2.19 2.19 0 0 1 2.189 2.19v17.54a2.19 2.19 0 0 1-2.19 2.19h-4.646a2.19 2.19 0 0 1-2.19-2.19V7.062c0-1.21.98-2.19 2.19-2.19z"/><rect width="9.025" height="20.018" x="38.901" y="4.872" fill="#FFDE00" rx="2.189"/><path fill="#FFDE00" d="M20.69 13.38h25.136c1.21 0 2.19.98 2.19 2.19v9.001a2.19 2.19 0 0 1-2.19 2.19H20.69a2.19 2.19 0 0 1-2.189-2.19V15.57a2.19 2.19 0 0 1 2.19-2.189zm-5.357 70.135h30.493c1.21 0 2.19.98 2.19 2.19v11.63a2.19 2.19 0 0 1-2.19 2.188H15.333a2.19 2.19 0 0 1-2.19-2.189v-11.63a2.19 2.19 0 0 1 2.19-2.189zm9.139-51.334H45.85c1.21 0 2.19.98 2.19 2.19v41.183a2.19 2.19 0 0 1-2.19 2.189H21.246a2.19 2.19 0 0 1-2.183-2.36L22.29 34.2a2.19 2.19 0 0 1 2.183-2.019z"/></g></svg>