<?xml version="1.0" encoding="UTF-8"?><svg width="32px" height="26px" viewBox="0 0 32 26" version="1.1" xmlns="http://www.w3.org/2000/svg" xmlns:xlink="http://www.w3.org/1999/xlink"><title>juicy-crown-unlocked</title><desc>Created with Sketch.</desc><g id="Page-1" stroke="none" stroke-width="1" fill="none" fill-rule="evenodd"><g id="juicy-crown-unlocked" transform="translate(1.000000, 1.000000)" fill="#E5E5E5" fill-rule="nonzero" stroke="#FFFFFF" stroke-width="2"><path d="M7.756,6.993 L12.632,1.882 C13.2378543,1.2469304 14.0729018,0.881084131 14.9504851,0.866238503 C15.8280684,0.851392876 16.6750122,1.18878575 17.302,1.803 L22.594,6.989 L25.437,4.728 C26.2761293,4.06050369 27.4491145,4.00759997 28.3449252,4.59684738 C29.2407359,5.1860948 29.656646,6.28414389 29.376,7.319 L25.67,20.971 C25.3391114,22.1908879 24.2319674,23.0380001 22.968,23.0380001 L6.908,23.0380001 C5.64366103,23.0382922 4.53598585,22.1912465 4.205,20.971 L0.555,7.518 C0.260731262,6.43355938 0.685695545,5.28174032 1.61378175,4.64828824 C2.54186795,4.01483615 3.76934805,4.03880272 4.672,4.708 L7.755,6.993 L7.756,6.993 Z" id="Path"/></g></g></svg>